Coordinates
version=1
nRows=16
nColumns=42
inDegrees=yes

Units are S.I. units (second, meters, Newtons, ...)
If the header above contains a line with 'inDegrees', this indicates whether rotational values are in degrees (yes) or radians (no).

endheader
time	pelvis_tilt	pelvis_list	pelvis_rotation	pelvis_tx	pelvis_ty	pelvis_tz	hip_flexion_r	hip_adduction_r	hip_rotation_r	knee_angle_r	knee_angle_r_beta	ankle_angle_r	subtalar_angle_r	mtp_angle_r	hip_flexion_l	hip_adduction_l	hip_rotation_l	knee_angle_l	knee_angle_l_beta	ankle_angle_l	subtalar_angle_l	mtp_angle_l	lumbar_extension	lumbar_bending	lumbar_rotation	sh_tx_r	sh_ty_r	sh_tz_r	sh_plane_elev_r	sh_elev_r	sh_axial_rot_r	elbow_flex_r	pro_sup_r	sh_tx_l	sh_ty_l	sh_tz_l	sh_plane_elev_l	sh_elev_l	sh_axial_rot_l	elbow_flex_l	pro_sup_l
      0.00000000	     -4.71167967	     -0.51623416	     -0.93904030	      0.19096723	      0.92740100	     -0.08926822	      8.69445407	     -3.24280456	      0.11115619	     10.24008438	      0.17872319	     -3.03985420	    -19.44274365	     -7.55947266	      5.95264414	     -3.59941412	     -8.06432314	      4.72370076	      0.08244413	      7.53338540	     -2.44442017	     -7.55947266	     -3.01616141	     -0.21928696	     -0.01392684	      0.02035826	     -0.01573915	     -0.00682075	     52.47257482	     30.45310487	    -25.77755592	     29.54526246	     68.50936415	      0.01815123	     -0.01207257	     -0.00711575	     66.77403289	     31.34966681	    -29.92043020	     34.28014354	     54.28627136
      0.01694910	     -6.04379580	     -0.58057774	     -0.25505654	      0.19495576	      0.92496937	     -0.08912865	      9.00022697	     -2.92083713	     -0.22754429	      8.90937916	      0.15549800	     -0.17552485	    -14.88816572	     -7.53826680	      7.21790315	     -3.30526017	     -9.68045228	      4.10561985	      0.07165658	      8.41214427	      0.26815840	     -7.53826680	     -0.28192007	     -0.73803850	      2.49338141	      0.01755261	     -0.01512514	     -0.00685268	     48.06381988	     29.53223965	    -27.91153906	     30.79897883	     65.26965441	      0.01784029	     -0.01115065	     -0.00720009	     74.83895240	     35.22992449	    -31.35586446	     26.01183419	     46.15700212
      0.03389830	     -6.54086566	     -0.11297889	     -0.09380676	      0.19516282	      0.92302930	     -0.08969557	      8.88446178	     -3.45110843	     -1.10201382	      7.64898398	      0.13349995	      0.45492271	    -13.92526529	     -7.52347050	      7.43520895	     -2.81971314	    -10.93153356	      3.49904619	      0.06106988	      7.98651669	      1.52566221	     -7.52347050	      0.60665694	     -1.57039828	      2.78513202	      0.01930248	     -0.01475845	     -0.00669866	     48.01246541	     30.40592272	    -29.00464444	     32.24895706	     64.72157918	      0.01855456	     -0.01056839	     -0.00699296	     75.22473533	     37.44224709	    -30.04668715	     24.47188281	     38.73414202
      0.05084750	     -6.40457710	      0.17240248	      0.24661442	      0.19494336	      0.92991386	     -0.08911718	      8.19566534	     -3.78303393	     -1.37147022	      6.58095501	      0.11485933	      0.79827914	    -12.88710292	     -7.52376575	      6.86715448	     -2.45749238	    -11.50708637	      2.60061755	      0.04538934	      7.43926843	      2.39301131	     -7.52376575	      0.97678803	     -2.05435473	      2.61356566	      0.02411878	     -0.01522955	     -0.00673223	     48.08306096	     31.20731853	    -28.88837856	     32.92735172	     64.43442852	      0.02155573	     -0.01088683	     -0.00697844	     73.91385060	     38.95711310	    -29.52744529	     24.98684156	     38.58768383
      0.06779660	     -5.70216447	      0.34653096	      0.38177313	      0.19409403	      0.93018427	     -0.09074938	      7.11508565	     -3.95951996	     -1.42436241	      5.90759947	      0.10310706	      1.26987918	    -12.10102470	     -7.52222828	      5.75799153	     -2.14979356	    -11.56495139	      1.88266544	      0.03285871	      6.88937498	      2.61140014	     -7.52222828	     -0.32849394	     -2.19055071	      2.42730567	      0.02399971	     -0.01514055	     -0.00661590	     48.01092782	     32.25102592	    -32.11989199	     35.52556787	     63.22759893	      0.01741262	     -0.01070088	     -0.00688391	     74.54989245	     41.43318059	    -31.97864129	     24.75084062	     37.92898587
      0.08474580	     -5.26595107	      0.53256160	      0.56863330	      0.19278315	      0.93298765	     -0.08883299	      6.42481116	     -4.09102253	     -1.42344403	      5.38420614	      0.09397212	      1.43743423	    -11.52080648	     -7.51650085	      5.17773926	     -1.87426091	    -11.53829050	      1.57230409	      0.02744188	      6.48897106	      2.81555342	     -7.51650085	     -0.83823500	     -2.57955207	      3.91066506	      0.02192007	     -0.01535519	     -0.00644819	     45.74999674	     32.67956137	    -33.35593695	     37.95802221	     59.99103749	      0.01953986	     -0.01140474	     -0.00677264	     77.44229266	     43.78791316	    -32.84514497	     23.36798226	     33.86769656
      0.10169490	     -4.88398914	      0.67260080	      0.77182861	      0.18881777	      0.93113053	     -0.09089579	      5.98782610	     -4.28688236	     -1.41456093	      5.06169330	      0.08834321	      1.49588303	    -11.48238388	     -7.51423144	      4.77498758	     -1.66204755	    -11.52152827	      1.39868037	      0.02441158	      6.25936774	      3.17667960	     -7.51423144	     -1.45266692	     -2.64562711	      3.31734500	      0.02314710	     -0.01511364	     -0.00643673	     47.00721370	     33.82710036	    -35.32163440	     39.27332632	     59.30948158	      0.01802626	     -0.01127195	     -0.00683342	     77.11292809	     45.33153960	    -34.85144049	     24.34363297	     34.56577070
      0.11864410	     -4.62443061	      0.74483261	      0.96332010	      0.18822193	      0.92617159	     -0.09005921	      5.72418735	     -4.39506695	     -1.29579361	      4.88450440	      0.08525068	      1.54582632	    -11.73794689	     -7.51289435	      4.51816393	     -1.55505544	    -11.31472796	      1.29064584	      0.02252602	      6.23659284	      3.29328039	     -7.51289435	     -1.83519588	     -2.79647512	      3.47208329	      0.02176046	     -0.01484913	     -0.00645917	     47.76923977	     35.14330041	    -37.08279694	     40.25895884	     58.28280968	      0.01766280	     -0.01083210	     -0.00681182	     77.88607355	     47.07174380	    -36.20906078	     24.72494147	     33.43863471
      0.13559320	     -4.47368945	      0.75719708	      1.11480644	      0.18528836	      0.92623051	     -0.09030926	      5.74684871	     -4.41818284	     -1.19302684	      4.89207578	      0.08538283	      1.61016677	    -11.76076788	     -7.50913962	      4.47276964	     -1.52761489	    -11.17431655	      1.15410047	      0.02014285	      6.18775385	      3.64187067	     -7.50913962	     -2.15781220	     -2.94799179	      4.25897160	      0.01975501	     -0.01454845	     -0.00644510	     47.35697137	     36.31483289	    -37.88954620	     41.53400529	     56.26280518	      0.01790821	     -0.01071605	     -0.00681293	     79.81378589	     49.31116073	    -35.98741309	     24.11009651	     29.55255311
      0.15254240	     -4.25356079	      0.76960668	      1.27147904	      0.18409063	      0.92527569	     -0.09109731	      5.61985832	     -4.50712201	     -1.18117493	      4.93860418	      0.08619490	      1.49355857	    -12.11686363	     -7.50632230	      4.34501333	     -1.47557428	    -10.94506616	      1.11586888	      0.01947559	      6.17655886	      3.72467504	     -7.50632230	     -2.54165721	     -2.94139847	      4.19859300	      0.01821589	     -0.01431234	     -0.00643672	     48.64920585	     38.16377716	    -39.25609537	     41.51220941	     55.43886791	      0.01661414	     -0.01021679	     -0.00678790	     80.56287041	     51.24359198	    -36.54041891	     23.86822685	     28.69441620
      0.16949150	     -4.21514488	      0.77679086	      1.35356516	      0.18504005	      0.92211592	     -0.09218711	      5.68655522	     -4.57168107	     -1.17301881	      5.02838480	      0.08776187	      1.43372946	    -12.45963954	     -7.50533586	      4.38441719	     -1.43406277	    -10.80318680	      1.07691833	      0.01879577	      6.24421788	      3.93140845	     -7.50533586	     -2.66974971	     -2.93058592	      4.06509230	      0.01699681	     -0.01399549	     -0.00645062	     49.79390628	     39.94197269	    -40.21276277	     41.36585862	     55.09300354	      0.01560262	     -0.00922933	     -0.00678642	     80.76013474	     52.80066603	    -38.20976239	     24.75833590	     29.52853548
      0.18644070	     -4.09028062	      0.75795565	      1.32365949	      0.18480264	      0.92270384	     -0.08989212	      5.67336897	     -4.53511955	     -1.13795977	      5.22444815	      0.09118382	      1.50623381	    -12.61400156	     -7.50484365	      4.27440792	     -1.48591716	    -10.75983518	      1.01769924	      0.01776220	      6.27169355	      4.05017269	     -7.50484365	     -2.77521819	     -2.90439264	      4.05746657	      0.01707609	     -0.01346600	     -0.00644082	     50.57274293	     41.44462029	    -40.61155253	     41.56018628	     54.93477900	      0.01576841	     -0.00795411	     -0.00686078	     80.67056215	     54.06157033	    -39.32341454	     26.05565045	     30.72604855
      0.20338980	     -4.11402588	      0.67984293	      1.34866513	      0.18331900	      0.92049035	     -0.09074809	      5.83624919	     -4.45935642	     -1.16982623	      5.41796619	      0.09456135	      1.33421757	    -13.10637401	     -7.50380749	      4.39434935	     -1.59468304	    -10.39570884	      1.07719479	      0.01880060	      6.25407736	      3.77334706	     -7.50380749	     -2.86139063	     -2.83142375	      3.98680072	      0.01337262	     -0.01337748	     -0.00641789	     52.24751917	     43.86550180	    -40.97032030	     39.97623264	     53.29572905	      0.01366627	     -0.00788237	     -0.00668497	     81.43544642	     56.28247061	    -38.35461116	     25.04471611	     27.75913480
      0.22033900	     -4.04623953	      0.62184169	      1.34510741	      0.18500281	      0.92176274	     -0.08976614	      5.76714520	     -4.36126958	     -1.15354432	      5.47630339	      0.09557953	      1.11242812	    -13.44422095	     -7.50365221	      4.30940288	     -1.70465862	    -10.41365551	      1.03803323	      0.01811710	      6.26577482	      4.10668366	     -7.50365221	     -2.91994578	     -2.76670541	      3.97352881	      0.01275988	     -0.01295404	     -0.00640965	     53.02245219	     45.36372665	    -41.43388776	     39.89725529	     52.93955980	      0.01326141	     -0.00727280	     -0.00669251	     81.90176979	     57.84071200	    -39.24689960	     25.17847832	     27.80945812
      0.23728810	     -4.14102686	      0.53685637	      1.31735742	      0.18392541	      0.92025295	     -0.08969828	      5.90930964	     -4.24321092	     -1.22260647	      5.58843010	      0.09753651	      1.01921724	    -13.71841980	     -7.50249289	      4.44335734	     -1.83768775	    -10.42206142	      1.00378187	      0.01751930	      6.19468887	      3.94181362	     -7.50249289	     -2.76396480	     -2.70700753	      4.02504348	      0.01012419	     -0.01281688	     -0.00637959	     54.27523259	     47.55606323	    -41.34241107	     38.65308608	     50.31040379	      0.01123349	     -0.00767327	     -0.00659091	     82.75448780	     59.97144716	    -37.47458540	     23.77388946	     23.26622003
      0.25423730	     -4.75019364	      0.49341025	      1.28905348	      0.18410496	      0.91834331	     -0.08758439	      6.57729383	     -4.15762827	     -1.39179600	      5.65101122	      0.09862875	      1.27530993	    -13.34828412	     -7.50233245	      5.10457187	     -1.94960054	    -10.55955719	      1.00728244	      0.01758040	      6.09096340	      4.19668338	     -7.50233245	     -1.06456342	     -2.66671710	      3.97726955	      0.01555092	     -0.01190614	     -0.00641115	     54.30165199	     47.81047909	    -41.12802882	     39.23453961	     50.55673880	      0.01729058	     -0.00605086	     -0.00677879	     81.91179620	     59.84068332	    -37.72369108	     25.60641162	     25.68368453
